<svg width="512" height="512" viewBox="0 0 100 100" xmlns="http://www.w3.org/2000/svg">
  <defs>
    <linearGradient id="instaGradient" x1="0%" y1="0%" x2="100%" y2="100%">
      <stop offset="0%" style="stop-color:#FF9900;" />
      <stop offset="50%" style="stop-color:#FF0066;" />
      <stop offset="100%" style="stop-color:#CC00CC;" />
    </linearGradient>
  </defs>

  <g fill="none" stroke="url(#instaGradient)" stroke-width="6" stroke-linecap="round" stroke-linejoin="round">
    
    {/* Outer rounded square */}
    <rect x="5" y="5" width="90" height="90" rx="22" ry="22" />

    {/* Calendar rings */}
    <line x1="38" y1="5" x2="38" y2="15" />
    <line x1="62" y1="5" x2="62" y2="15" />

    {/* Inner shape with checkmark cutout */}
    <path d="
      M 31 30 
      H 69 
      C 72.3137 30 75 32.6863 75 36 
      V 41 
      H 25 
      V 36 
      C 25 32.6863 27.6863 30 31 30 Z

      M 25 47
      V 69
      C 25 72.3137 27.6863 75 31 75
      H 69
      C 72.3137 75 75 72.3137 75 69
      V 47
      H 63 L 60 50 L 48 62 L 40 54 L 37 51 H 25 Z
    " fill="url(#instaGradient)" stroke="none"/>
    
  </g>
</svg>